 <svg t="1652234142891" class="icon" viewBox="0 0 1024 1024" version="1.1" xmlns="http://www.w3.org/2000/svg" p-id="5648" width="200" height="200" style="width: 60px; height: 60px;"><path d="M247.36 331.296c146.112-143.04 383.008-143.04 529.12 0l17.6 17.216a18.016 18.016 0 0 1 0 25.92l-60.16 58.88a9.504 9.504 0 0 1-13.248 0l-24.192-23.68c-101.92-99.84-267.2-99.84-369.152 0l-25.92 25.344a9.472 9.472 0 0 1-13.248 0l-60.096-58.88a18.016 18.016 0 0 1 0-25.92l19.296-18.88z m653.536 121.792l53.536 52.416a18.016 18.016 0 0 1 0 25.92l-241.408 236.352a19.04 19.04 0 0 1-26.464 0l-171.328-167.744a4.736 4.736 0 0 0-6.592 0l-171.36 167.744a19.04 19.04 0 0 1-26.464 0l-241.408-236.352a18.016 18.016 0 0 1 0-25.92l53.536-52.416a19.04 19.04 0 0 1 26.464 0l171.328 167.776c1.824 1.792 4.8 1.792 6.592 0l171.328-167.776a19.04 19.04 0 0 1 26.464 0l171.328 167.776c1.824 1.792 4.8 1.792 6.592 0l171.328-167.744c7.36-7.168 19.2-7.168 26.56 0z" fill="#3B99FC" p-id="5649"></path></svg>